# xmcd CD database file
#
# Track frame offsets:
#	150
#	23655
#	55448
#	76651
#	107206
#	126000
#	143832
#	163606
#	186898
#	210944
#	236939
#	265231
#
# Disc length: 3827 seconds
#
# Revision: 1
# Processed by: cddbd v1.5.2PL0 Copyright (c) Steve Scherf et al.
# Submitted via: CDex 1.51
#
DISCID=a00ef10c
DTITLE=New Age And New Sound - Vol. 152
DYEAR=2003
DGENRE=New Age
TTITLE0=Hariprasad Chaurasia and Ken Lauber - Movement one
TTITLE1=David Antony Clark - The cape of restless souls
TTITLE2=Alquimia and Gleisberg - The marmaids awaken
TTITLE3=Gregg Kofi Brown - Je fre me kofi
TTITLE4=Pierre Bensusan and Brian Gore - L'alchimiste
TTITLE5=Reza Asgarzadeh - Khroma
TTITLE6=DJ Francois - Need 4 love
TTITLE7=GFC - Code 07
TTITLE8=Marcio Rangel - Doce melodia
TTITLE9=Alessandro Scopece - Awakening
TTITLE10=Bliss - Lento
TTITLE11=Regina Carter - Pavane pour une enfante defunte
EXTD=YEAR: 2003
EXTT0=
EXTT1=
EXTT2=
EXTT3=
EXTT4=
EXTT5=
EXTT6=
EXTT7=
EXTT8=
EXTT9=
EXTT10=
EXTT11=
PLAYORDER=
